<svg xmlns="http://www.w3.org/2000/svg" width="112.337" height="40" viewBox="0 0 112.337 40">
    <defs>
        <clipPath id="vof27jga5a">
            <path data-name="사각형 462" style="fill:#2a3136" d="M0 0h112.337v40H0z"/>
        </clipPath>
    </defs>
    <g data-name="+ Logo">
        <path data-name="패스 759" d="M10.95.587 0 23.038h5.124L13.043 6.8l7.92 16.237h5.123L15.135.587z" transform="translate(0 -.231)" style="fill:#10100a"/>
        <g data-name="그룹 57">
            <g data-name="그룹 56" style="clip-path:url(#vof27jga5a)">
                <path data-name="패스 760" d="M116.058 0a11.581 11.581 0 1 0 11.582 11.581A11.581 11.581 0 0 0 116.058 0m0 18.557a6.976 6.976 0 1 1 6.976-6.976 6.976 6.976 0 0 1-6.976 6.976" transform="translate(-41.087)" style="fill:#2a3136"/>
                <path data-name="패스 761" d="m58.578 9.768 4 6.921 2.659 4.605 2.659-4.605 4-6.921v13.275h4.605V.558h-4.614l-6.654 11.526L58.578.558h-4.605v22.485h4.605z" transform="translate(-21.226 -.22)" style="fill:#2a3136"/>
                <path data-name="패스 762" d="M163.038 18.551a9.288 9.288 0 0 1-5.892-2.321l-.34-.326-3.173 3.648c.129.147 3.222 3.612 9.406 3.612 6.283 0 9.091-2.979 9.587-5.53A5.279 5.279 0 0 0 171 12.42a12 12 0 0 0-4.993-2.431l-4.568-1.254c-2.551-.7-2.714-1.613-2.58-2.332.187-1.005 1.485-1.792 4.18-1.792a8.074 8.074 0 0 1 3.626.922 11.225 11.225 0 0 1 1.855 1.32l.337.285 3.11-3.372a11.869 11.869 0 0 0-2.984-2.273A12.51 12.51 0 0 0 163.038 0c-5.012 0-8.469 2.819-8.916 5.544a5.842 5.842 0 0 0 1.093 4.8 9.267 9.267 0 0 0 4.922 2.833l4.568 1.254c2.333.64 3.118 1.341 2.9 2.585-.127.71-1.4 1.539-4.563 1.539" transform="translate(-60.419)" style="fill:#2a3136"/>
                <path data-name="패스 763" d="m159.658 51.681-4.152 8.513h1.943l3-6.157 3 6.157h1.951l-4.152-8.513z" transform="translate(-61.156 -20.325)" style="fill:#2a3136"/>
                <path data-name="패스 764" d="M37.964 51.451a4.392 4.392 0 1 0 4.392 4.392 4.391 4.391 0 0 0-4.392-4.392m0 7.037a2.645 2.645 0 1 1 2.645-2.645 2.645 2.645 0 0 1-2.645 2.645" transform="translate(-13.203 -20.234)" style="fill:#2a3136"/>
                <path data-name="패스 765" d="M125.53 51.451a4.392 4.392 0 1 0 4.392 4.392 4.391 4.391 0 0 0-4.392-4.392m0 7.037a2.645 2.645 0 1 1 2.645-2.645 2.645 2.645 0 0 1-2.645 2.645" transform="translate(-47.64 -20.234)" style="fill:#2a3136"/>
                <path data-name="패스 766" d="M8.283 52.482a2.91 2.91 0 0 0-1.023-.6 4.094 4.094 0 0 0-1.369-.213H2.409v8.522h1.875v-2.559h1.424a4.632 4.632 0 0 0 1.345-.189 3.186 3.186 0 0 0 1.1-.566 2.649 2.649 0 0 0 .737-.937 2.989 2.989 0 0 0 .268-1.3v-.024a3.089 3.089 0 0 0-.226-1.2 2.632 2.632 0 0 0-.645-.931m-1.033 2.189a1.219 1.219 0 0 1-.39.919 1.525 1.525 0 0 1-1.1.371h-1.48v-2.605h1.449a1.723 1.723 0 0 1 1.114.329 1.162 1.162 0 0 1 .408.962z" transform="translate(-.947 -20.319)" style="fill:#2a3136"/>
                <path data-name="패스 767" d="M24.293 56.189a2.674 2.674 0 0 0 .5-1.687v-.024a2.633 2.633 0 0 0-.73-1.948 3.363 3.363 0 0 0-2.484-.865h-3.9v8.523h1.875v-2.726h1.473l1.826 2.727h2.192l-2.082-3.044a2.924 2.924 0 0 0 1.321-.956M22.9 54.6a1.113 1.113 0 0 1-.371.877 1.557 1.557 0 0 1-1.065.329h-1.9v-2.448h1.863a1.722 1.722 0 0 1 1.084.3 1.087 1.087 0 0 1 .39.913z" transform="translate(-6.956 -20.319)" style="fill:#2a3136"/>
                <path data-name="패스 768" d="M52.21 60.189h1.875v-3.3h4.066V55.2h-4.066v-1.841H58.7v-1.693h-6.49z" transform="translate(-20.533 -20.319)" style="fill:#2a3136"/>
                <path data-name="패스 769" d="M68.918 56.731h4.018v-1.668h-4.018v-1.729h4.566v-1.668h-6.417v8.523h6.477v-1.668h-4.626z" transform="translate(-26.375 -20.319)" style="fill:#2a3136"/>
                <path data-name="사각형 461" transform="translate(69.098 31.347)" style="fill:#2a3136" d="M0 0h1.875v8.523H0z"/>
                <path data-name="패스 770" d="m145.5 56.913-4-5.247h-1.729v8.523h1.851V54.77l4.128 5.418h1.594v-8.522H145.5z" transform="translate(-54.969 -20.319)" style="fill:#2a3136"/>
                <path data-name="패스 771" d="M176.932 58.5v-6.83h-1.875v8.522h6.124V58.5z" transform="translate(-68.845 -20.319)" style="fill:#2a3136"/>
                <path data-name="패스 772" d="m86.6 55.239-1.732-.476c-.967-.265-1.029-.612-.978-.884.07-.382.563-.68 1.585-.68a3.059 3.059 0 0 1 1.375.349 4.314 4.314 0 0 1 .7.5l.127.108 1.179-1.278a4.5 4.5 0 0 0-1.132-.862 4.741 4.741 0 0 0-2.254-.565c-1.9 0-3.211 1.068-3.381 2.1a2.213 2.213 0 0 0 .415 1.818 3.511 3.511 0 0 0 1.866 1.075l1.732.476c.885.243 1.183.508 1.1.98-.049.269-.53.583-1.73.583a3.522 3.522 0 0 1-2.235-.88l-.129-.124-1.2 1.383a4.822 4.822 0 0 0 3.567 1.37c2.382 0 3.447-1.13 3.636-2.1a2 2 0 0 0-.617-1.977 4.543 4.543 0 0 0-1.893-.922" transform="translate(-32.21 -20.234)" style="fill:#2a3136"/>
                <path data-name="패스 773" d="m102.464 55.239-1.732-.476c-.967-.265-1.029-.612-.978-.884.07-.382.562-.68 1.585-.68a3.059 3.059 0 0 1 1.375.349 4.308 4.308 0 0 1 .7.5l.128.108 1.179-1.278a4.514 4.514 0 0 0-1.132-.862 4.741 4.741 0 0 0-2.254-.565c-1.9 0-3.211 1.068-3.381 2.1a2.213 2.213 0 0 0 .415 1.818 3.511 3.511 0 0 0 1.866 1.075l1.732.476c.885.243 1.183.508 1.1.98-.049.269-.53.583-1.73.583a3.522 3.522 0 0 1-2.235-.88l-.129-.124-1.2 1.383a4.822 4.822 0 0 0 3.567 1.37c2.382 0 3.447-1.13 3.636-2.1a2 2 0 0 0-.617-1.977 4.543 4.543 0 0 0-1.893-.922" transform="translate(-38.451 -20.234)" style="fill:#2a3136"/>
            </g>
        </g>
    </g>
</svg>
