<svg width="70" height="70" viewBox="0 0 70 70" fill="none" xmlns="http://www.w3.org/2000/svg">
<circle cx="35" cy="35" r="35" fill="#3A416F"/>
<path d="M17.2465 24.2862L15.5179 29.0907H17.2465V29.9073H15.2321L13.7758 33.9496L13 33.6502L16.4571 24.014L17.2465 24.2862ZM20.8396 33.6638L20.0619 33.9769L17.4098 26.4639L18.1875 26.1508L20.8396 33.6638ZM24.1062 24.1637L27.1957 30.8484L26.4608 31.2295L23.8067 25.4859L22.2007 33.9224L21.3841 33.7591L23.2079 24.1637H24.1062ZM31.17 33.936L29.3462 25.5384L28.094 28.5871L27.3299 28.2721L29.0176 24.1617H29.9062L31.9866 33.7727L31.17 33.936ZM37.4036 33.9769C36.5883 33.9875 35.7865 33.7685 35.0898 33.3449C34.3996 32.9222 33.8373 32.3197 33.4634 31.6018C33.0623 30.8361 32.8588 29.9823 32.8713 29.1179C32.8661 28.469 32.9646 27.8235 33.163 27.2056C33.3451 26.6355 33.6287 26.103 34 25.6336L34.5726 26.2597C34.293 26.6286 34.0792 27.043 33.9407 27.4847C33.7877 27.9688 33.7119 28.4741 33.7161 28.9818C33.7064 29.72 33.872 30.4501 34.1993 31.1118C34.4972 31.7242 34.9559 32.244 35.5263 32.6158C36.0854 32.9777 36.7386 33.1671 37.4046 33.1602C38.0705 33.1671 38.7238 32.9777 39.2828 32.6158C39.8533 32.244 40.312 31.7242 40.6098 31.1118C40.9371 30.4501 41.1027 29.72 41.093 28.9818C41.1032 28.2457 40.9375 27.5178 40.6098 26.8586C40.3105 26.2491 39.852 25.7318 39.2828 25.3614C38.7238 24.9995 38.0705 24.8101 37.4046 24.817C36.9119 24.8099 36.4238 24.9121 35.9755 25.1164L35.5672 24.3951C36.1422 24.1272 36.7702 23.9923 37.4046 24.0004C38.2198 23.9898 39.0217 24.2087 39.7183 24.6323C40.4084 25.0554 40.9703 25.6583 41.3438 26.3764C41.7438 27.1376 41.9474 27.9868 41.9359 28.8467C41.9486 29.7521 41.7456 30.6475 41.3438 31.4589C40.9766 32.2082 40.4149 32.8451 39.7174 33.3031C39.0298 33.7517 38.2245 33.9862 37.4036 33.9769ZM48.4961 26.9286C48.512 27.3028 48.4466 27.676 48.3045 28.0226C48.1623 28.3692 47.9468 28.6808 47.6727 28.9361C47.0644 29.4612 46.2772 29.7317 45.4746 29.6915H44.3722V33.8135H43.5283V24.1637H44.3722V28.8865H45.4902C46.0647 28.9159 46.6285 28.7234 47.0651 28.3489C47.2592 28.1679 47.4118 27.9471 47.5125 27.7016C47.6131 27.4561 47.6595 27.1917 47.6484 26.9266C47.66 26.6625 47.6138 26.399 47.513 26.1545C47.4123 25.91 47.2594 25.6905 47.0651 25.5111C46.6256 25.1397 46.0609 24.9499 45.4863 24.9803H45.461V24.1637H45.4882C46.2863 24.1247 47.0687 24.3949 47.6727 24.9181C47.9469 25.1735 48.1625 25.4853 48.3047 25.8321C48.4468 26.1788 48.5122 26.5522 48.4961 26.9266V26.9286ZM48.7392 33.3119L48.1559 33.8816L45.7332 31.2139L46.3593 30.6831L48.7392 33.3119ZM55 32.9988V33.8135H50.2247V24.1637H51.0685V28.3829H54.6481V29.1996H51.0685V32.9969L55 32.9988ZM54.9319 24.9823H52.2662V24.1656H54.9339L54.9319 24.9823Z" fill="white"/>
<path d="M17.6447 43.4721L14.5551 36.7894L13.6568 36.7874L11.833 46.3828L12.6496 46.5461L14.2557 38.1096L16.9097 43.8532L17.6447 43.4721Z" fill="white"/>
<path d="M19.7951 38.1621L21.6189 46.5597L22.4375 46.3964L20.3532 36.7855H19.4685L17.7808 40.8958L18.543 41.2108L19.7951 38.1621Z" fill="white"/>
<path d="M25.4999 41.7144L27.2265 36.9099L26.4351 36.6377L22.978 46.2739L23.7558 46.5733L25.2141 42.531H27.2284V41.7144H25.4999Z" fill="white"/>
<path d="M30.0419 46.6006L30.8196 46.2875L28.1656 38.7745L27.3878 39.0876L30.0419 46.6006Z" fill="white"/>
<path d="M32.9156 36.7874H32.0718V46.4372H32.9156V36.7874Z" fill="white"/>
<path d="M36.3455 45.6206H34.195V46.4372H36.3455V45.6206Z" fill="white"/>
<path d="M38.6457 36.7874H37.8018V46.4372H38.6457V36.7874Z" fill="white"/>
<path d="M42.0755 45.6206H39.925V46.4372H42.0755V45.6206Z" fill="white"/>
<path d="M48.4944 37.7509H56.0112L47 46.7621L48.2379 48L57.2491 38.9888V46.5056H59V36H48.4944V37.7509Z" fill="white"/>
</svg>
